# xmcd
#
# Track frame offsets: 
#        180
#        16706
#        38210
#        63331
#        81318
#        105710
#        123454
#        143672
#        165918
#        191150
#        219982
#        239536
#        279397
#
# Disc length: 4006 seconds
#
# Revision: 2
# Processed by: cddbd v1.5.2PL0 Copyright (c) Steve Scherf et al.
# Submitted via: ExactAudioCopyFreeDBPlugin 1.0
#
DISCID=ae0fa40d
DTITLE=Timmons, Andy - Pawn Kings
DYEAR=1995
DGENRE=Rock
TTITLE0=Guess Who's Back In Town
TTITLE1=Way That I'm Livin'
TTITLE2=Green Onions
TTITLE3=Loosen Up
TTITLE4=I Believe In You
TTITLE5=Night Train
TTITLE6=Blood Is Thicker Than Water
TTITLE7=Let's Go
TTITLE8=Honky Tonk Blues
TTITLE9=Little Wing
TTITLE10=You Can Count On Me
TTITLE11=When A Man Loves A Woman
TTITLE12=Fried Chicken Skin
EXTD=YEAR: 1995
EXTT0=
EXTT1=
EXTT2=
EXTT3=
EXTT4=
EXTT5=
EXTT6=
EXTT7=
EXTT8=
EXTT9=
EXTT10=
EXTT11=
EXTT12=
PLAYORDER=
